<svg width="451" height="377" viewBox="0 0 451 377" fill="none" xmlns="http://www.w3.org/2000/svg">
  <path d="M415.924 340.465C347.525 404.065 267.758 369.632 236.424 344.465L277.424 288.965C304.625 309.365 336.258 307.632 349.424 302.965C357.424 298.465 379.424 282.965 379.424 252.965C373.424 216.465 349.924 211.965 333.924 210.465C317.924 208.965 305.424 222.465 298.424 228.965C292.824 234.165 277.091 259.799 269.924 271.965L239.924 319.465C225.591 338.799 182.725 377.365 125.924 376.965C69.1245 376.565 34.2578 343.799 23.9245 327.465C9.75784 308.465 -12.9755 257.965 9.42451 207.965C31.8245 157.965 78.0912 142.465 98.4245 140.965C95.6245 157.765 124.924 192.632 139.924 207.965C121.424 204.965 78.4245 209.465 73.4245 244.465C69.1388 274.465 82.4245 286.965 97.4245 298.965C146.795 324.049 188.042 276.244 202.722 248.845C202.789 248.72 202.856 248.594 202.924 248.465C202.858 248.592 202.79 248.718 202.722 248.845C198.892 256.032 198.19 257.504 224.924 207.965C252.124 157.565 296.924 141.299 315.924 139.465C342.924 134.132 404.424 137.665 434.424 194.465C471.924 265.465 436.424 315.465 415.924 340.465Z" fill="#3B6C3F"/>
  <path d="M284.924 272.965L292.424 261.465C307.424 269.965 329.424 277.965 340.924 263.965C352.424 249.965 345.424 241.465 342.924 233.965C348.125 233.965 352.758 241.965 354.424 245.965C357.091 252.799 357.525 269.565 337.924 281.965C313.125 292.765 292.258 280.465 284.924 272.965Z" fill="#3B6C3F"/>
  <path d="M180.924 261.465L158.424 281.465C139.424 259.465 125.924 252.465 118.924 251.965C103.424 252.965 100.258 258.799 97.4245 262.965C96.4245 259.965 94.4245 239.465 118.424 234.465C147.225 229.265 172.091 250.299 180.924 261.465Z" fill="#3B6C3F"/>
  <path d="M230.924 179.465C226.924 181.465 204.591 221.632 193.924 241.465C107.424 168.465 113.924 147.465 109.424 130.965C105.758 115.799 104.424 77.5655 128.424 45.9655C158.424 6.46546 199.424 1.96546 210.424 0.465457C221.424 -1.03454 292.924 -1.03454 306.924 34.9655C295.924 31.1321 269.424 26.0655 251.424 36.4655C233.424 46.8655 234.924 65.7988 237.924 73.9654C189.525 57.9654 172.424 98.9655 175.924 116.965C185.424 150.465 214.924 166.965 230.924 179.465Z" fill="#3B6C3F"/>
  <path d="M311.924 28.9655L292.924 13.9655C294.525 7.96545 317.591 20.1321 328.924 26.9655C329.924 27.2988 334.924 28.7655 346.924 31.9655C356.525 40.3655 361.924 49.7988 363.424 53.4655C387.139 66.9655 390.924 75.9655 388.924 88.9655C376.924 107.365 356.591 104.632 347.924 100.965C343.758 97.6321 329.025 90.5655 303.424 88.9655C271.424 86.9655 269.424 74.4655 264.424 66.4655C267.625 60.4655 278.758 61.9655 283.924 63.4655C304.724 78.6655 317.258 82.4655 320.924 82.4655C343.324 82.0655 349.591 84.6321 349.924 85.9655C351.924 95.6497 359.758 96.6672 363.424 95.9655V84.9655C363.424 78.4655 346.924 73.9655 342.424 71.9655C338.824 70.3655 339.591 68.9655 340.424 68.4655H354.924C398.924 93.2655 375.591 69.4655 358.424 54.4655C350.025 40.4655 338.924 35.6321 334.424 34.9655L352.924 52.4655C331.324 32.0655 316.591 28.2988 311.924 28.9655Z" fill="#3B6C3F"/>
  <path d="M363.424 114.465C368.224 114.465 373.758 108.132 375.924 104.965C373.924 104.565 368.091 106.799 365.424 107.965H347.424C326.924 99.9655 317.924 98.4655 294.424 96.9655C275.625 95.7655 262.591 85.1321 258.424 79.9655C255.924 77.2988 251.025 69.3655 251.424 58.9655C251.924 45.9655 262.424 42.4655 271.424 40.4655C278.625 38.8655 296.424 48.1321 304.424 52.9655H320.924C330.258 60.2988 347.424 72.0655 341.424 60.4655C335.424 48.8655 326.924 45.2988 323.424 44.9655C316.591 46.1321 300.025 46.7655 288.424 39.9655C276.824 33.1655 266.591 34.4655 262.924 35.9655C239.725 44.3655 243.591 66.4655 248.424 76.4655C267.924 104.465 279.924 101.965 311.424 105.965C342.924 109.965 333.424 114.465 345.424 114.465H363.424Z" fill="#3B6C3F"/>
  <path d="M321.924 74.9655C306.924 74.9655 307.924 56.4655 318.924 55.4655C322.091 55.9655 328.724 58.6655 329.924 65.4655C331.125 72.2655 325.091 74.6321 321.924 74.9655Z" fill="#22c55e"/>
</svg>
